<svg height="512pt" viewBox="0 -52 512.00145 512" width="512pt" xmlns="http://www.w3.org/2000/svg"><g fill-rule="evenodd"><path d="m95.246094 68.027344c13.558594.464844 26.988281-6.117188 34.695312-18.449219 7.703125-12.332031 7.734375-27.289063 1.371094-39.273437-13.558594-.460938-26.988281 6.117187-34.691406 18.449218-7.707032 12.332032-7.734375 27.289063-1.375 39.273438zm0 0" fill="#a6f074"/><path d="m86.175781 80.421875c2.945313-7.242187 3.769531-15.429687 1.878907-23.625-3.273438-14.167969-13.828126-24.761719-26.796876-28.742187-9.914062 9.261718-14.757812 23.414062-11.488281 37.582031 3.273438 14.167969 13.828125 24.761719 26.800781 28.742187 1.996094-1.867187 3.789063-3.933594 5.347657-6.15625 1.359375-2.628906 2.777343-5.230468 4.257812-7.800781zm0 0" fill="#a6f074"/><path d="m108.488281 69.566406c-14.167969 3.273438-24.761719 13.828125-28.738281 26.796875 9.257812 9.917969 23.40625 14.757813 37.578125 11.488281 14.167969-3.273437 24.761719-13.828124 28.742187-26.796874-9.261718-9.914063-23.410156-14.757813-37.582031-11.488282zm0 0" fill="#a6f074"/><path d="m61.117188 107.792969c-7.050782-12.71875-20.117188-19.992188-33.679688-20.246094-6.980469 11.636719-7.734375 26.574219-.683594 39.292969 7.050782 12.71875 20.117188 19.992187 33.683594 20.242187 1.402344-2.347656 2.558594-4.828125 3.445312-7.394531.582032-2.90625 1.230469-5.796875 1.941407-8.671875.835937-7.769531-.628907-15.867187-4.707031-23.222656zm0 0" fill="#a6f074"/><path d="m84.28125 114.433594c-12.71875 7.050781-19.996094 20.113281-20.242188 33.679687 11.636719 6.976563 26.570313 7.734375 39.289063.683594s19.996094-20.117187 20.242187-33.679687c-11.636718-6.980469-26.570312-7.734376-39.289062-.683594zm0 0" fill="#a6f074"/><path d="m49.28125 164.234375c-10.285156-10.28125-24.847656-13.675781-37.957031-10.175781-3.5 13.109375-.109375 27.675781 10.171875 37.957031 10.285156 10.285156 24.851562 13.671875 37.957031 10.171875.699219-2.617188 1.125-5.292969 1.273437-7.980469-.242187-2.96875-.417968-5.957031-.523437-8.960937-1.339844-7.695313-4.980469-15.070313-10.921875-21.011719zm0 0" fill="#a6f074"/><path d="m73.378906 164.234375c-10.285156 10.28125-13.675781 24.847656-10.175781 37.953125 13.109375 3.503906 27.671875.113281 37.957031-10.171875 10.28125-10.285156 13.671875-24.847656 10.171875-37.957031-13.105469-3.5-27.671875-.109375-37.953125 10.175781zm0 0" fill="#a6f074"/><path d="m69.59375 238.617188c-3.417969-6.890626-8.894531-12.851563-16.132812-16.867188-12.71875-7.046875-27.65625-6.292969-39.289063.683594.246094 13.566406 7.519531 26.632812 20.238281 33.683594 12.71875 7.046874 27.65625 6.292968 39.292969-.6875-.050781-2.609376-.355469-5.195313-.914063-7.730469-1.136718-2.992188-2.203124-6.019531-3.195312-9.082031zm0 0" fill="#a6f074"/><path d="m76.625 215.109375c-7.050781 12.71875-6.296875 27.652344.679688 39.289063 13.566406-.25 26.632812-7.523438 33.683593-20.242188s6.292969-27.652344-.683593-39.289062c-13.566407.25-26.632813 7.523437-33.679688 20.242187zm0 0" fill="#a6f074"/><path d="m73.332031 275.890625c-14.171875-3.273437-28.320312 1.570313-37.582031 11.484375 3.980469 12.972656 14.574219 23.527344 28.742188 26.800781 14.171874 3.269531 28.320312-1.574219 37.582031-11.488281-.796875-2.589844-1.851563-5.082031-3.148438-7.433594-1.8125-2.433594-3.574219-4.90625-5.28125-7.421875-5.203125-5.773437-12.167969-10.0625-20.3125-11.941406zm0 0" fill="#a6f074"/><path d="m93.765625 263.121094c-3.269531 14.167968 1.570313 28.316406 11.484375 37.578125 12.972656-3.976563 23.527344-14.570313 26.800781-28.742188 3.269531-14.167969-1.574219-28.316406-11.488281-37.578125-12.96875 3.976563-23.523438 14.570313-26.796875 28.742188zm0 0" fill="#a6f074"/><path d="m107.355469 322.453125c-14.523438.761719-26.789063 9.316406-32.957031 21.398437 7.398437 11.375 20.492187 18.601563 35.015624 17.839844 14.519532-.761718 26.789063-9.320312 32.957032-21.402344-1.480469-2.273437-3.183594-4.378906-5.082032-6.289062-2.382812-1.816406-4.726562-3.6875-7.019531-5.613281-6.613281-4.148438-14.523437-6.371094-22.914062-5.933594zm0 0" fill="#a6f074"/><path d="m123.480469 304.542969c.761719 14.523437 9.3125 26.789062 21.398437 32.960937 11.371094-7.398437 18.597656-20.492187 17.835938-35.015625-.761719-14.523437-9.316406-26.789062-21.398438-32.957031-11.375 7.398438-18.597656 20.492188-17.835937 35.011719zm0 0" fill="#a6f074"/><path d="m170.953125 297.601562c-8.894531 10.25-12.226563 24.824219-7.496094 38.574219 4.738281 13.75 16.339844 23.183594 29.65625 25.78125 8.894531-10.246093 12.230469-24.820312 7.492188-38.574219-4.734375-13.746093-16.335938-23.179687-29.652344-25.78125zm0 0" fill="#a6f074"/><path d="m176.253906 357.140625c-7.417968-2.078125-15.523437-2.003906-23.355468.695313-13.75 4.734374-23.183594 16.339843-25.785157 29.652343 10.246094 8.898438 24.824219 12.230469 38.574219 7.496094s23.183594-16.339844 25.78125-29.65625c-1.96875-1.707031-4.101562-3.214844-6.355469-4.492187-2.988281-1.164063-5.941406-2.394532-8.859375-3.695313zm0 0" fill="#a6f074"/><path d="m416.761719 68.027344c-13.5625.464844-26.988281-6.117188-34.695313-18.449219-7.707031-12.332031-7.734375-27.289063-1.375-39.273437 13.558594-.460938 26.988282 6.117187 34.691406 18.449218 7.707032 12.332032 7.738282 27.289063 1.378907 39.273438zm0 0" fill="#a6f074"/><path d="m425.828125 80.421875c-2.949219-7.242187-3.769531-15.429687-1.878906-23.625 3.273437-14.167969 13.828125-24.761719 26.796875-28.742187 9.914062 9.261718 14.757812 23.414062 11.488281 37.582031-3.273437 14.167969-13.828125 24.761719-26.800781 28.742187-1.996094-1.867187-3.789063-3.933594-5.347656-6.15625-1.359376-2.628906-2.777344-5.230468-4.257813-7.800781zm0 0" fill="#a6f074"/><path d="m403.515625 69.566406c14.167969 3.273438 24.765625 13.828125 28.742187 26.796875-9.261718 9.917969-23.410156 14.757813-37.582031 11.488281-14.167969-3.273437-24.761719-13.828124-28.738281-26.796874 9.261719-9.914063 23.410156-14.757813 37.578125-11.488282zm0 0" fill="#a6f074"/><path d="m450.886719 107.792969c7.050781-12.71875 20.117187-19.992188 33.679687-20.246094 6.976563 11.636719 7.734375 26.574219.683594 39.292969s-20.117188 19.992187-33.683594 20.242187c-1.40625-2.347656-2.558594-4.828125-3.445312-7.394531-.582032-2.90625-1.230469-5.796875-1.941406-8.671875-.835938-7.769531.628906-15.867187 4.707031-23.222656zm0 0" fill="#a6f074"/><path d="m427.722656 114.433594c12.71875 7.050781 19.996094 20.113281 20.242188 33.679687-11.636719 6.976563-26.570313 7.734375-39.289063.683594s-19.992187-20.117187-20.242187-33.679687c11.636718-6.980469 26.570312-7.734376 39.289062-.683594zm0 0" fill="#a6f074"/><path d="m462.722656 164.234375c10.285156-10.28125 24.847656-13.675781 37.957032-10.175781 3.5 13.109375.109374 27.675781-10.171876 37.957031-10.285156 10.285156-24.847656 13.671875-37.957031 10.171875-.699219-2.617188-1.125-5.292969-1.273437-7.980469.242187-2.96875.417968-5.957031.523437-8.960937 1.339844-7.695313 4.980469-15.070313 10.921875-21.011719zm0 0" fill="#a6f074"/><path d="m438.628906 164.234375c10.28125 10.28125 13.671875 24.847656 10.171875 37.953125-13.109375 3.503906-27.671875.113281-37.953125-10.171875-10.285156-10.285156-13.675781-24.847656-10.175781-37.957031 13.105469-3.5 27.671875-.109375 37.957031 10.175781zm0 0" fill="#a6f074"/><path d="m442.410156 238.617188c3.421875-6.890626 8.894532-12.851563 16.136719-16.867188 12.71875-7.046875 27.652344-6.292969 39.289063.683594-.25 13.566406-7.523438 26.632812-20.242188 33.683594-12.71875 7.046874-27.65625 6.292968-39.289062-.6875.046874-2.609376.355468-5.195313.910156-7.730469 1.136718-2.992188 2.203125-6.019531 3.195312-9.082031zm0 0" fill="#a6f074"/><path d="m435.382812 215.109375c7.046876 12.71875 6.292969 27.652344-.683593 39.289063-13.566407-.25-26.632813-7.523438-33.679688-20.242188-7.050781-12.71875-6.296875-27.652344.679688-39.289062 13.566406.25 26.632812 7.523437 33.683593 20.242187zm0 0" fill="#a6f074"/><path d="m438.671875 275.890625c14.171875-3.273437 28.320313 1.570313 37.582031 11.484375-3.976562 12.972656-14.574218 23.527344-28.742187 26.800781-14.167969 3.269531-28.320313-1.574219-37.578125-11.488281.792968-2.589844 1.847656-5.082031 3.144531-7.433594 1.816406-2.433594 3.574219-4.90625 5.28125-7.421875 5.203125-5.773437 12.167969-10.0625 20.3125-11.941406zm0 0" fill="#a6f074"/><path d="m418.238281 263.121094c3.269531 14.167968-1.570312 28.316406-11.484375 37.578125-12.972656-3.976563-23.527344-14.570313-26.796875-28.742188-3.273437-14.167969 1.570313-28.316406 11.484375-37.578125 12.972656 3.976563 23.523438 14.570313 26.796875 28.742188zm0 0" fill="#a6f074"/><path d="m404.648438 322.453125c14.523437.761719 26.789062 9.316406 32.957031 21.398437-7.398438 11.375-20.492188 18.601563-35.015625 17.839844-14.519532-.761718-26.785156-9.320312-32.953125-21.402344 1.476562-2.273437 3.179687-4.378906 5.078125-6.289062 2.382812-1.816406 4.726562-3.6875 7.023437-5.613281 6.613281-4.148438 14.523438-6.371094 22.910157-5.933594zm0 0" fill="#a6f074"/><path d="m388.527344 304.542969c-.761719 14.523437-9.316406 26.789062-21.398438 32.960937-11.375-7.398437-18.601562-20.492187-17.839844-35.015625.761719-14.523437 9.316407-26.789062 21.398438-32.957031 11.375 7.398438 18.597656 20.492188 17.839844 35.011719zm0 0" fill="#a6f074"/><path d="m341.050781 297.601562c8.894531 10.25 12.230469 24.824219 7.496094 38.574219s-16.339844 23.183594-29.65625 25.78125c-8.890625-10.246093-12.230469-24.820312-7.492187-38.574219 4.734374-13.746093 16.335937-23.179687 29.652343-25.78125zm0 0" fill="#a6f074"/><path d="m335.75 357.140625c7.417969-2.078125 15.523438-2.003906 23.359375.695313 13.746094 4.734374 23.179687 16.339843 25.785156 29.652343-10.25 8.898438-24.828125 12.230469-38.578125 7.496094s-23.183594-16.339844-25.78125-29.65625c1.972656-1.707031 4.101563-3.214844 6.355469-4.492187 2.988281-1.164063 5.945313-2.394532 8.859375-3.695313zm0 0" fill="#a6f074"/><path d="m214.167969 241.878906c0 7.792969 6.320312 14.113282 14.113281 14.113282h13.609375v13.609374c0 7.792969 6.316406 14.109376 14.109375 14.109376 7.796875 0 14.113281-6.316407 14.113281-14.109376v-13.609374h13.609375c7.792969 0 14.113282-6.320313 14.113282-14.113282 0-7.792968-6.320313-14.113281-14.113282-14.113281h-13.609375v-11.484375c12.847657-2.753906 24.328125-9.1875 33.289063-18.144531 12.128906-12.132813 19.632812-28.890625 19.632812-47.398438 0-18.507812-7.503906-35.269531-19.632812-47.398437-12.132813-12.132813-28.890625-19.636719-47.398438-19.636719-18.511718 0-35.269531 7.503906-47.398437 19.636719-12.132813 12.128906-19.636719 28.886718-19.636719 47.398437 0 18.507813 7.503906 35.265625 19.636719 47.398438 8.957031 8.957031 20.4375 15.390625 33.285156 18.144531v11.484375h-13.605469c-7.796875 0-14.117187 6.320313-14.117187 14.113281zm69.277343-63.699218c-7.023437 7.019531-16.726562 11.363281-27.445312 11.363281-10.714844 0-20.417969-4.34375-27.441406-11.363281-7.023438-7.023438-11.367188-16.726563-11.367188-27.445313s4.347656-20.417969 11.367188-27.441406c7.023437-7.023438 16.726562-11.367188 27.441406-11.367188 10.71875 0 20.421875 4.34375 27.445312 11.367188 7.023438 7.023437 11.367188 16.726562 11.367188 27.441406 0 10.71875-4.34375 20.421875-11.367188 27.445313zm0 0" fill="#9b51a0"/></g><path d="m131.3125 20.023438c5.523438 0 10-4.480469 10-10 0-5.523438-4.476562-10.0039068-10-10.0039068h-.003906c-5.519532 0-9.996094 4.4804688-9.996094 10.0039068 0 5.519531 4.476562 10 10 10zm0 0"/><path d="m479.394531 242.054688c-1.953125 1.976562-4.191406 3.667968-6.648437 5.03125-7.261719 4.023437-15.855469 4.71875-23.574219 2.125.808594-2.183594 1.574219-4.382813 2.3125-6.597657 2.609375-5.152343 6.714844-9.519531 11.910156-12.398437 4.832031-2.679688 6.574219-8.765625 3.898438-13.59375-.792969-1.425782-1.882813-2.574219-3.148438-3.429688 12.402344-.378906 24.449219-5.40625 33.429688-14.386718 12.40625-12.402344 17.296875-30.644532 12.765625-47.609376-.921875-3.457031-3.625-6.15625-7.082032-7.082031-5.941406-1.585937-12.03125-1.992187-17.980468-1.347656 3.402344-3.308594 6.363281-7.109375 8.71875-11.359375 8.503906-15.339844 8.175781-34.226562-.851563-49.28125-1.808593-3.019531-5.066406-4.859375-8.574219-4.859375-.0625 0-.125.003906-.1875.003906-6.148437.113281-12.117187 1.402344-17.65625 3.660157 2.355469-4.121094 4.15625-8.589844 5.25-13.324219 3.945313-17.089844-1.570312-35.152344-14.402343-47.140625-2.613281-2.441406-6.335938-3.304688-9.757813-2.25-7.761718 2.378906-14.667968 6.628906-20.261718 12.179687-1.027344-2.480469-2.242188-4.902343-3.6875-7.21875-9.296876-14.875-25.929688-23.726562-43.519532-23.1484372-3.574218.1210942-6.8125 2.1445312-8.492187 5.3085942-8.230469 15.507812-7.566407 34.382812 1.730469 49.257812 1.445312 2.316406 3.089843 4.46875 4.871093 6.480469-7.441406 2.59375-14.289062 6.9375-19.828125 12.871093-2.445312 2.613282-3.304687 6.335938-2.253906 9.757813 3.695312 12.050781 11.875 22.066406 22.507812 28.230469-.300781.988281-.46875 2.019531-.449218 3.082031.234375 12.601563 5.332031 24.484375 13.855468 33.339844-.558593.867187-1.007812 1.816406-1.28125 2.84375-3.25 12.179687-1.625 25.003906 4.128907 35.867187-.777344.679688-1.46875 1.46875-2.011719 2.378906-6.484375 10.808594-8.457031 23.585938-5.921875 35.613282-.933594.4375-1.8125 1.003906-2.589844 1.730468-9.210937 8.605469-14.628906 20.347657-15.503906 32.605469-1.019531.164063-2.023437.464844-2.96875.949219-11.226563 5.734375-19.667969 15.527344-23.894531 27.070312-1.023438-.125-2.070313-.109374-3.113282.09375-17.230468 3.363282-31.484374 15.757813-37.195312 32.339844-4.28125 12.441406-3.324219 25.980469 2.277344 37.570313-15.382813 4.132812-31.542969 6.351562-48.214844 6.351562-16.667969 0-32.828125-2.21875-48.210938-6.351562 5.601563-11.589844 6.558594-25.128907 2.273438-37.570313-5.710938-16.582031-19.960938-28.976562-37.191406-32.339844-1.042969-.203124-2.089844-.21875-3.117188-.09375-4.222656-11.542968-12.664062-21.339843-23.890625-27.070312-.945312-.484375-1.949219-.785156-2.96875-.949219-.878906-12.261719-6.292969-24-15.503906-32.605469-.777344-.726562-1.660156-1.292968-2.59375-1.730468 2.535156-12.027344.566406-24.804688-5.917969-35.617188-.542968-.910156-1.234375-1.695312-2.011718-2.375 5.75-10.863281 7.378906-23.691406 4.125-35.867187-.273438-1.027344-.71875-1.976563-1.28125-2.839844 8.527343-8.859375 13.628906-20.738281 13.855468-33.34375.019532-1.0625-.148437-2.09375-.445312-3.082031 10.632812-6.164063 18.8125-16.179688 22.507812-28.230469 1.050782-3.421875.1875-7.144531-2.253906-9.757813-5.539062-5.933593-12.386719-10.277343-19.828125-12.871093 1.78125-2.011719 3.425781-4.164063 4.871094-6.480469 2.925781-4.683594 1.503906-10.851562-3.183594-13.78125-4.679687-2.921875-10.851563-1.5-13.777344 3.183594-4.417969 7.066406-11.636719 11.855468-19.6875 13.308594-2.222656-7.875-1.085937-16.464844 3.332031-23.53125 1.484376-2.382813 3.292969-4.527344 5.371094-6.375 4.125-3.675782 4.492188-9.996094.820313-14.121094-3.675781-4.121094-9.992188-4.488282-14.121094-.820313-3.5 3.117188-6.539063 6.722657-9.035156 10.71875-1.449219 2.316407-2.660157 4.738281-3.6875 7.222657-5.59375-5.554688-12.503907-9.804688-20.261719-12.183594-3.425781-1.050782-7.144531-.1875-9.761719 2.253906-12.828125 11.984375-18.347656 30.046875-14.402343 47.136719 1.09375 4.738281 2.894531 9.207031 5.253906 13.324219-5.542969-2.253907-11.511719-3.542969-17.660156-3.65625-3.574219-.078126-6.917969 1.785156-8.757813 4.851562-9.03125 15.058594-9.359375 33.941406-.855469 49.285156 2.355469 4.25 5.320313 8.046875 8.71875 11.355469-5.945312-.640625-12.042968-.234375-17.980468 1.351563-3.457032.925781-6.160157 3.625-7.082032 7.082031-4.527344 16.964843.363282 35.203125 12.765625 47.609375 3.429688 3.429687 7.308594 6.28125 11.484375 8.519531-5.886718 1.023437-11.621094 3.09375-16.886718 6.25-3.066407 1.839844-4.921876 5.179687-4.855469 8.757813.324219 17.554687 10.054687 33.742187 25.394531 42.246093 4.25 2.355469 8.773438 4.011719 13.410156 5.011719-5.382812 2.609375-10.335937 6.179688-14.53125 10.671875-2.441406 2.617187-3.300781 6.339844-2.253906 9.761719 5.148438 16.785156 18.964844 29.664062 36.054688 33.609375 3.648437.84375 7.34375 1.253906 11.015624 1.253906 1.085938 0 2.167969-.050781 3.246094-.121094-4.449218 3.988281-8.222656 8.785157-11.015625 14.253907-1.628906 3.1875-1.429687 7.003906.523438 10 9.109375 14 24.78125 22.4375 41.363281 22.4375.851562 0 1.703125-.019532 2.558594-.0625 4.851562-.257813 9.566406-1.253907 14.03125-2.859376-3.183594 5.0625-5.492188 10.71875-6.667969 16.753907-.6875 3.511719.558594 7.125 3.261719 9.472656 9.09375 7.890625 20.671875 12.0625 32.398437 12.0625 5.375 0 10.773438-.875 15.984375-2.667969 13.699219-4.714844 24.519532-15.265625 29.773438-28.503906 5.722656 1.660156 11.550781 3.074219 17.46875 4.238281-3.792969 3.65625-7.113282 7.855469-9.808594 12.527344-2.761719 4.785156-1.125 10.902344 3.660156 13.660156 1.574219.910157 3.292969 1.34375 4.988282 1.34375 3.457031 0 6.820312-1.792969 8.671874-5.003906 6.640626-11.503906 19.019532-18.652344 32.304688-18.652344s25.660156 7.148438 32.304688 18.652344c2.761718 4.78125 8.875 6.421875 13.660156 3.660156s6.421875-8.878906 3.660156-13.660156c-2.699219-4.671875-6.015625-8.871094-9.808594-12.527344 5.917969-1.164062 11.742188-2.578125 17.46875-4.238281 5.253906 13.238281 16.074219 23.789062 29.773438 28.503906 5.210937 1.792969 10.609375 2.667969 15.980468 2.667969 11.730469 0 23.308594-4.171875 32.402344-12.0625 2.703125-2.347656 3.945313-5.960937 3.261719-9.472656-1.179687-6.035157-3.484375-11.691407-6.671875-16.753907 4.46875 1.605469 9.179688 2.601563 14.035156 2.859376.855469.042968 1.707032.0625 2.558594.0625 16.582031 0 32.253906-8.4375 41.363281-22.4375 1.949219-2.996094 2.148438-6.8125.523438-10-2.792969-5.46875-6.5625-10.265626-11.015625-14.253907 1.078125.070313 2.160156.121094 3.246094.121094 3.667968 0 7.367187-.410156 11.015624-1.253906 17.089844-3.945313 30.90625-16.824219 36.054688-33.609375 1.046875-3.421875.1875-7.144532-2.253906-9.761719-4.195313-4.492187-9.148438-8.0625-14.53125-10.671875 4.636718-1.003906 9.160156-2.65625 13.410156-5.011719 4.125-2.285156 7.882812-5.132812 11.175781-8.464843 3.886719-3.925782 3.847657-10.257813-.078125-14.140626-3.921875-3.882812-10.253906-3.851562-14.140625.078126zm-407.484375-48.855469c-.394531-8.171875 2.644532-16.285157 8.539063-22.179688s14.007812-8.929687 22.175781-8.535156c.394531 8.171875-2.644531 16.285156-8.535156 22.175781-5.894532 5.894532-14 8.925782-22.179688 8.539063zm26.570313-53.429688c-7.289063 4.035157-15.921875 4.722657-23.671875 2.089844 1.875-7.960937 7.03125-14.921875 14.320312-18.960937 7.289063-4.042969 15.921875-4.726563 23.671875-2.09375-1.871093 7.960937-7.03125 14.921874-14.320312 18.964843zm23.824219 129.65625c-1.875 8.121094-7.144532 14.996094-14.28125 18.992188-4.664063-6.722657-6.386719-15.210938-4.511719-23.332031 1.875-8.121094 7.144531-14.996094 14.28125-18.992188 4.664062 6.722656 6.386719 15.210938 4.511719 23.332031zm-20.0625-40.398437c-4.042969 7.289062-11.003907 12.445312-18.96875 14.320312-2.628907-7.746094-1.945313-16.382812 2.097656-23.671875 4.039062-7.289062 11-12.449219 18.964844-14.320312 2.628906 7.746093 1.945312 16.382812-2.09375 23.671875zm72.722656 79.933594c7.515625 3.230468 13.476562 9.515624 16.1875 17.398437 2.714844 7.878906 1.886718 16.503906-2.046875 23.675781-7.519531-3.230468-13.476563-9.515625-16.191407-17.398437-2.710937-7.878907-1.886718-16.503907 2.050782-23.675781zm-22.238282-6.230469c.4375 8.320312-2.734374 16.382812-8.492187 22.191406-6.335937-5.171875-10.332031-12.859375-10.769531-21.183594s2.734375-16.382812 8.496094-22.191406c6.335937 5.175781 10.332031 12.859375 10.765624 21.183594zm-37.648437-204.90625c-8.121094 1.871093-16.609375.152343-23.332031-4.511719 3.996094-7.140625 10.871094-12.410156 18.992187-14.285156 8.117188-1.871094 16.609375-.152344 23.332031 4.511718-3.996093 7.140626-10.871093 12.410157-18.992187 14.285157zm-51.050781-58.050781c7.136718 3.996093 12.40625 10.871093 14.28125 18.992187 1.339844 5.796875.832031 11.785156-1.257813 17.183594-1.152343 2.015625-2.269531 4.046875-3.347656 6.09375-7.089844-4.003907-12.324219-10.855469-14.191406-18.941407-1.871094-8.117187-.148438-16.609374 4.515625-23.328124zm-30.621094 58.261718c7.964844 1.875 14.921875 7.03125 18.964844 14.320313 2.851562 5.144531 4.023437 10.960937 3.546875 16.660156-.566407 2.316406-1.089844 4.644531-1.574219 6.980469-7.914062-1.898438-14.824219-7.039063-18.84375-14.289063-4.039062-7.289062-4.726562-15.925781-2.09375-23.671875zm-13.375 64.449219c8.167969-.386719 16.285156 2.644531 22.175781 8.539063 4.234375 4.230468 6.984375 9.609374 8.058594 15.328124.09375 2.292969.214844 4.578126.382813 6.847657-8.117188.359375-16.207032-2.667969-22.078126-8.539063-5.894531-5.890625-8.933593-14.003906-8.539062-22.175781zm4.910156 65.636719c7.746094-2.632813 16.382813-1.945313 23.667969 2.09375 5.195313 2.878906 9.300781 7.246094 11.910156 12.398437.738281 2.214844 1.503907 4.414063 2.3125 6.597657-7.71875 2.59375-16.3125 1.898437-23.574219-2.125-7.285156-4.039063-12.445312-11-14.316406-18.964844zm41.800782 76.027344c-8.121094-1.875-14.996094-7.148438-18.992188-14.285157 6.722656-4.664062 15.214844-6.382812 23.332031-4.511719 5.988281 1.382813 11.296875 4.617188 15.277344 9.082032 1.210937 1.753906 2.445313 3.492187 3.707031 5.207031-6.71875 4.65625-15.210937 6.378906-23.324218 4.507813zm42.144531 47.269531c-8.308594.4375-16.382813-2.730469-22.191407-8.492188 5.175782-6.335937 12.859376-10.332031 21.183594-10.769531 6.164063-.320312 12.171875 1.332031 17.234375 4.546875 1.628907 1.34375 3.285157 2.65625 4.957031 3.949219-5.175781 6.335937-12.859374 10.332031-21.183593 10.765625zm53.542969 33.828125c-7.875 2.710937-16.5 1.886718-23.671876-2.046875 3.226563-7.519531 9.515626-13.476563 17.394532-16.191407 5.671875-1.953124 11.726562-2.0625 17.347656-.507812 2.082031.910156 4.175781 1.796875 6.289062 2.640625-3.238281 7.476563-9.507812 13.402344-17.359374 16.105469zm260.445312-262.347656c7.289062 4.039062 12.445312 11 14.320312 18.960937-7.75 2.632813-16.382812 1.949219-23.671874-2.089844-7.289063-4.042969-12.445313-11.003906-14.320313-18.96875 7.746094-2.628906 16.382813-1.941406 23.671875 2.097657zm-13.496094 39.585937c8.183594-.382813 16.285156 2.644531 22.175782 8.539063 5.894531 5.890624 8.933593 14.003906 8.539062 22.175781-8.175781.390625-16.285156-2.644531-22.179688-8.539063-5.890624-5.890625-8.929687-14.003906-8.535156-22.175781zm-1.710937 42.871094c7.964843 1.875 14.925781 7.03125 18.96875 14.316406 4.039062 7.292969 4.722656 15.929687 2.09375 23.675781-7.964844-1.875-14.925781-7.03125-18.964844-14.320312-4.042969-7.289063-4.726563-15.925782-2.097656-23.671875zm.824219 59.730469c1.875 8.121093.152343 16.609374-4.511719 23.332031-7.136719-3.996094-12.40625-10.871094-14.28125-18.992188-1.875-8.121093-.152344-16.609375 4.511719-23.332031 7.136718 3.996094 12.40625 10.871094 14.28125 18.992188zm83.480468-102.601563c.394532 8.171875-2.644531 16.285156-8.539062 22.175781-5.867188 5.871094-13.949219 8.898438-22.078125 8.539063.167969-2.269531.289062-4.554688.382812-6.847657 1.074219-5.71875 3.824219-11.097656 8.058594-15.332031 5.890625-5.890625 14.007813-8.929687 22.175781-8.535156zm-15.46875-40.777344c-4.019531 7.253907-10.929687 12.390625-18.84375 14.289063-.484375-2.335938-1.007812-4.660156-1.570312-6.972656-.480469-5.703126.691406-11.519532 3.542968-16.667969 4.039063-7.289063 11.003907-12.445313 18.964844-14.320313 2.632813 7.75 1.945313 16.382813-2.09375 23.671875zm-42.808594-62.941406c1.875-8.121094 7.144532-14.996094 14.28125-18.992187 4.667969 6.722656 6.386719 15.210937 4.515626 23.328124-1.867188 8.085938-7.101563 14.933594-14.191407 18.941407-1.082031-2.050781-2.199219-4.082031-3.347656-6.097657-2.09375-5.398437-2.597656-11.382812-1.257813-17.179687zm-46.480468-38.300781c8.050781 1.453125 15.273437 6.238281 19.691406 13.308594 4.414062 7.066406 5.550781 15.652343 3.328125 23.527343-8.050781-1.453125-15.273437-6.238281-19.6875-13.308593-4.417969-7.066407-5.554687-15.65625-3.332031-23.527344zm14.050781 58.5625c8.121094 1.875 14.996094 7.144531 18.992187 14.285156-6.71875 4.664062-15.214843 6.382812-23.332031 4.511719-8.117187-1.875-14.996093-7.144531-18.992187-14.285157 6.722656-4.664062 15.214844-6.382812 23.332031-4.511718zm-41.988281 223.703125c.433594-8.324219 4.429687-16.007813 10.769531-21.183594 5.757813 5.808594 8.929687 13.871094 8.492187 22.191406-.4375 8.324219-4.433593 16.011719-10.769531 21.183594-5.757812-5.808594-8.929687-13.871094-8.492187-22.191406zm-38.425782 23.628906c2.710938-7.882813 8.671876-14.167969 16.191407-17.398437 3.933593 7.171874 4.761719 15.796874 2.046875 23.675781-2.714844 7.882812-8.671875 14.167969-16.191406 17.398437-3.9375-7.171875-4.761719-15.796875-2.046876-23.675781zm28.71875 58.886719c-7.847656-2.703125-14.113281-8.628906-17.351562-16.105469 2.109375-.84375 4.199219-1.726563 6.277344-2.640625 5.625-1.554688 11.683594-1.445312 17.355468.507812 7.882813 2.714844 14.167969 8.671876 17.398438 16.191407-7.175781 3.933593-15.800781 4.757812-23.679688 2.046875zm53.546876-33.828125c-8.324219-.433594-16.007813-4.429688-21.183594-10.761719 1.667968-1.292969 3.320312-2.601562 4.945312-3.945312 5.070313-3.214844 11.089844-4.871094 17.246094-4.554688 8.320312.4375 16.007812 4.433594 21.183594 10.769531-5.808594 5.761719-13.84375 8.929688-22.191406 8.492188zm42.144531-47.273438c-8.117188 1.875-16.605469.152344-23.324219-4.507812 1.261719-1.714844 2.5-3.449219 3.707031-5.203125 3.980469-4.464844 9.289063-7.699219 15.277344-9.082032 8.121094-1.871093 16.609375-.15625 23.332031 4.511719-3.996094 7.136719-10.871094 12.410157-18.992187 14.28125zm0 0"/><path d="m499.078125 212.226562c-5.480469-.683593-10.480469 3.203126-11.164063 8.683594l-.003906.007813c-.683594 5.480469 3.203125 10.476562 8.683594 11.160156.421875.054687.839844.078125 1.253906.078125 4.972656 0 9.277344-3.703125 9.910156-8.765625.6875-5.480469-3.203124-10.476563-8.679687-11.164063zm0 0"/><path d="m220.421875 219.082031c-9.449219 3.265625-16.253906 12.25-16.253906 22.796875 0 13.296875 10.816406 24.113282 24.113281 24.113282h3.605469v3.605468c0 13.296875 10.820312 24.113282 24.113281 24.113282 13.296875 0 24.113281-10.816407 24.113281-24.113282v-3.605468h3.609375c13.292969 0 24.109375-10.816407 24.109375-24.113282 0-10.546875-6.804687-19.53125-16.25-22.796875 6.914063-3.605469 13.28125-8.269531 18.886719-13.875 14.550781-14.550781 22.566406-33.894531 22.566406-54.472656 0-20.574219-8.015625-39.917969-22.566406-54.46875s-33.894531-22.566406-54.46875-22.566406-39.917969 8.015625-54.472656 22.566406c-14.546875 14.550781-22.5625 33.894531-22.5625 54.46875s8.015625 39.917969 22.5625 54.472656c5.609375 5.605469 11.976562 10.269531 18.894531 13.875zm-4.746094-108.671875c10.773438-10.773437 25.09375-16.707031 40.324219-16.707031 15.234375 0 29.554688 5.933594 40.328125 16.707031 10.773437 10.769532 16.707031 25.09375 16.707031 40.324219 0 15.234375-5.933594 29.554687-16.707031 40.328125-7.800781 7.804688-17.589844 13.140625-28.308594 15.4375-4.613281.988281-7.90625 5.0625-7.90625 9.78125v11.484375c0 5.523437 4.480469 10 10 10h13.609375c2.265625 0 4.109375 1.84375 4.109375 4.109375 0 2.269531-1.84375 4.113281-4.109375 4.113281h-13.609375c-5.519531 0-10 4.480469-10 10v13.609375c0 2.265625-1.84375 4.113282-4.113281 4.113282-2.265625 0-4.109375-1.847657-4.109375-4.113282v-13.609375c0-5.519531-4.476563-10-10-10h-13.609375c-2.265625 0-4.109375-1.84375-4.109375-4.113281 0-2.265625 1.84375-4.109375 4.109375-4.109375h13.609375c5.523437 0 10-4.476563 10-10v-11.484375c0-4.71875-3.292969-8.792969-7.90625-9.78125-10.714844-2.296875-20.507813-7.632812-28.308594-15.4375-10.773437-10.773438-16.707031-25.09375-16.707031-40.328125 0-15.230469 5.933594-29.550781 16.707031-40.324219zm0 0"/><path d="m256 199.546875c13.042969 0 25.300781-5.078125 34.515625-14.296875 9.21875-9.21875 14.296875-21.476562 14.296875-34.515625s-5.078125-25.296875-14.296875-34.511719c-9.21875-9.21875-21.476563-14.296875-34.515625-14.296875-13.035156 0-25.292969 5.078125-34.511719 14.296875-9.21875 9.214844-14.296875 21.472656-14.296875 34.511719s5.078125 25.296875 14.296875 34.515625c9.214844 9.21875 21.472657 14.296875 34.511719 14.296875zm-20.371094-69.183594c5.441406-5.4375 12.675782-8.4375 20.371094-8.4375 7.699219 0 14.933594 2.996094 20.371094 8.4375h.003906c5.4375 5.441407 8.4375 12.675781 8.4375 20.371094 0 7.699219-2.996094 14.933594-8.441406 20.371094-5.4375 5.441406-12.671875 8.4375-20.371094 8.4375-7.695312 0-14.929688-2.996094-20.371094-8.4375-5.4375-5.4375-8.433594-12.671875-8.433594-20.371094 0-7.695313 2.996094-14.929687 8.433594-20.371094zm0 0"/></svg>