<?xml version="1.0"?>
<svg xmlns="http://www.w3.org/2000/svg" xmlns:xlink="http://www.w3.org/1999/xlink" xmlns:svgjs="http://svgjs.com/svgjs" version="1.1" width="512" height="512" x="0" y="0" viewBox="0 0 512 512" style="enable-background:new 0 0 512 512" xml:space="preserve"><g>
<g xmlns="http://www.w3.org/2000/svg">
	<g>
		<g>
			<path d="M187.628,0H43.707C19.607,0,0,19.607,0,43.707v143.921c0,24.1,19.607,43.707,43.707,43.707h143.921     c24.1,0,43.707-19.607,43.707-43.707V43.707C231.335,19.607,211.728,0,187.628,0z" fill="#ffffff" data-original="#000000" style=""/>
			<path d="M468.293,0H324.372c-24.1,0-43.707,19.607-43.707,43.707v143.921c0,24.1,19.607,43.707,43.707,43.707h143.921     c24.1,0,43.707-19.607,43.707-43.707V43.707C512,19.607,492.393,0,468.293,0z" fill="#ffffff" data-original="#000000" style=""/>
			<path d="M187.628,280.665H43.707C19.607,280.665,0,300.272,0,324.372v143.921C0,492.393,19.607,512,43.707,512h143.921     c24.1,0,43.707-19.607,43.707-43.707V324.372C231.335,300.272,211.728,280.665,187.628,280.665z" fill="#ffffff" data-original="#000000" style=""/>
			<path d="M468.293,280.665H324.372c-24.1,0-43.707,19.607-43.707,43.707v143.921c0,24.1,19.607,43.707,43.707,43.707h143.921     c24.1,0,43.707-19.607,43.707-43.707V324.372C512,300.272,492.393,280.665,468.293,280.665z" fill="#ffffff" data-original="#000000" style=""/>
		</g>
	</g>
</g>
<g xmlns="http://www.w3.org/2000/svg">
</g>
<g xmlns="http://www.w3.org/2000/svg">
</g>
<g xmlns="http://www.w3.org/2000/svg">
</g>
<g xmlns="http://www.w3.org/2000/svg">
</g>
<g xmlns="http://www.w3.org/2000/svg">
</g>
<g xmlns="http://www.w3.org/2000/svg">
</g>
<g xmlns="http://www.w3.org/2000/svg">
</g>
<g xmlns="http://www.w3.org/2000/svg">
</g>
<g xmlns="http://www.w3.org/2000/svg">
</g>
<g xmlns="http://www.w3.org/2000/svg">
</g>
<g xmlns="http://www.w3.org/2000/svg">
</g>
<g xmlns="http://www.w3.org/2000/svg">
</g>
<g xmlns="http://www.w3.org/2000/svg">
</g>
<g xmlns="http://www.w3.org/2000/svg">
</g>
<g xmlns="http://www.w3.org/2000/svg">
</g>
</g></svg>
