<?xml version="1.0"?>
<svg xmlns="http://www.w3.org/2000/svg" xmlns:xlink="http://www.w3.org/1999/xlink" xmlns:svgjs="http://svgjs.com/svgjs" version="1.1" width="512" height="512" x="0" y="0" viewBox="0 0 511 511.99991" style="enable-background:new 0 0 512 512" xml:space="preserve" class=""><g><path xmlns="http://www.w3.org/2000/svg" d="m457.390625 405.664062c-77.230469-77.210937-139.847656-186.847656-148.160156-201.695312v-33.53125c0-6.675781 1.421875-17.515625 4.222656-32.21875.789063-4.132812-1.917969-8.121094-6.050781-8.902344-4.128906-.789062-8.109375 1.917969-8.898438 6.050782-2.164062 11.304687-3.523437 20.375-4.132812 27.460937h-128.640625c-2.253907-25.890625-13.957031-71.996094-16.867188-83.199219 2.789063-6.503906 7.144531-10.777344 13.253907-13.050781 19.648437-7.285156 52.984374 7.652344 64.167968 14.027344 2.335938 1.328125 5.207032 1.328125 7.539063 0 11.195312-6.375 44.535156-21.324219 64.191406-14.027344 6.097656 2.273437 10.453125 6.554687 13.253906 13.050781-1.136719 4.34375-3.632812 14.128906-6.351562 25.808594-.953125 4.101562 1.59375 8.191406 5.683593 9.144531 4.097657.953125 8.1875-1.59375 9.140626-5.683593 3.625-15.546876 6.832031-27.65625 6.871093-27.777344.386719-1.492188.324219-3.054688-.191406-4.503906-3.320313-9.339844-8.757813-16.339844-16.207031-20.9375-.699219-10.574219-4.597656-36.039063-25.421875-53.847657-1.714844-1.460937-3.980469-2.101562-6.203125-1.726562-2.210938.367187-4.148438 1.695312-5.296875 3.632812-.660157 1.105469-15.121094 25.789063-17.179688 50.8125-1.15625.378907-2.324219.753907-3.511719 1.167969-9.804687 3.378906-18.015624 7.308594-22.539062 9.640625-4.539062-2.332031-12.738281-6.261719-22.550781-9.640625-1.179688-.414062-2.34375-.789062-3.511719-1.167969-2.0625-25.023437-16.511719-49.707031-17.171875-50.8125-1.148437-1.9375-3.085937-3.265625-5.308594-3.632812-2.210937-.375-4.484375.265625-6.191406 1.726562-20.832031 17.808594-24.730469 43.28125-25.421875 53.847657-7.449219 4.597656-12.886719 11.597656-16.207031 20.9375-.515625 1.449218-.578125 3.011718-.183594 4.503906.175781.648437 17.375 65.710937 17.375 89.316406v33.53125c-8.320313 14.847656-70.9375 124.484375-148.167969 201.695312-1.523437 1.519532-2.324218 3.613282-2.210937 5.761719.101562 2.152344 1.113281 4.152344 2.777343 5.511719.835938.679688 19.234376 15.578125 51.070313 32.234375-.011719 0-.019531.007813-.019531.019531-1.289063 1.632813-1.859375 3.722656-1.5625 5.785156.292968 2.058594 1.417968 3.90625 3.105468 5.113282.585938.425781 14.640626 10.414062 38.949219 21.585937 1.035157.46875 2.109375.699219 3.175781.699219 2.882813 0 5.640626-1.652344 6.921876-4.433594 1.753906-3.824218.082031-8.34375-3.734376-10.097656-13.46875-6.191406-23.65625-12.035156-29.796874-15.8125 61.957031-81.289062 110.425781-193.035156 110.914062-194.183594 1.664062-3.855468-.113281-8.332031-3.96875-9.996094-3.867188-1.664062-8.34375.113282-10.007812 3.980469-.476563 1.09375-45.953126 105.898438-104.601563 185.046875-20.753906-10.695312-35.976563-20.863281-44.09375-26.691406 72.753906-75.015625 131.402344-175.597656 143.316406-196.636719h134.195313c11.925781 21.039063 70.574218 121.621094 143.328125 196.636719-8.097657 5.816406-23.289063 15.976562-44.09375 26.691406-58.660157-79.148437-104.136719-183.953125-104.613281-185.046875-1.652344-3.867187-6.140626-5.644531-9.996094-3.980469-3.867188 1.664063-5.640625 6.140626-3.976563 9.996094.496094 1.148438 48.964844 112.882813 110.914063 194.175782-19.507813 11.972656-80.113282 44.753906-158.652344 44.753906-33.777344 0-67.855469-5.976563-101.285156-17.769532-3.96875-1.402343-8.3125.679688-9.710938 4.648438-1.390625 3.957031.691406 8.308594 4.648438 9.710938 35.0625 12.359374 70.847656 18.632812 106.347656 18.632812 100.429688 0 171.203125-49.789062 174.167969-51.910156 1.695312-1.207032 2.8125-3.054688 3.105469-5.113282.292968-2.0625-.261719-4.152343-1.550782-5.785156-.011718-.011718-.023437-.019531-.023437-.019531 31.828125-16.65625 50.226562-31.554687 51.058593-32.234375 1.664063-1.359375 2.679688-3.359375 2.792969-5.511719.101563-2.148437-.703125-4.242187-2.222656-5.761719zm-175.644531-385.140624c7.886718 9.96875 11.132812 21.464843 12.464844 29.492187-6.648438-1.003906-14.097657-.800781-22.285157.609375 1.816407-11.40625 6.308594-22.621094 9.820313-30.101562zm-103.371094 0c3.511719 7.480468 7.996094 18.695312 9.824219 30.101562-8.191407-1.410156-15.640625-1.613281-22.289063-.609375 1.332032-8.027344 4.570313-19.523437 12.464844-29.492187zm115.632812 177.804687h-127.894531v-20.277344h127.894531zm0 0" fill="#000000" data-original="#000000" style="" class=""/></g></svg>
